<mxfile host="app.diagrams.net" modified="2021-11-29T07:17:23.475Z" agent="5.0 (Windows)" etag="N-IE-iXZglgED3hbUakG" version="15.5.8" type="github">
  <diagram id="LOXZm044NFQctGoS9aV-" name="第 1 页">
    <mxGraphModel dx="981" dy="519" grid="0" gridSize="10" guides="1" tooltips="1" connect="1" arrows="1" fold="1" page="1" pageScale="1" pageWidth="827" pageHeight="1169" background="#FFFFFF" math="0" shadow="0">
      <root>
        <mxCell id="0" />
        <mxCell id="1" parent="0" />
        <mxCell id="mqdKLTsZ6B2f3ertwh5I-9" style="edgeStyle=orthogonalEdgeStyle;rounded=0;orthogonalLoop=1;jettySize=auto;html=1;exitX=0.5;exitY=1;exitDx=0;exitDy=0;entryX=0.5;entryY=0;entryDx=0;entryDy=0;fontSize=29;" edge="1" parent="1" source="mqdKLTsZ6B2f3ertwh5I-1" target="mqdKLTsZ6B2f3ertwh5I-2">
          <mxGeometry relative="1" as="geometry" />
        </mxCell>
        <mxCell id="mqdKLTsZ6B2f3ertwh5I-1" value="Weight Layer" style="rounded=0;whiteSpace=wrap;html=1;" vertex="1" parent="1">
          <mxGeometry x="439" y="322" width="120" height="30" as="geometry" />
        </mxCell>
        <mxCell id="mqdKLTsZ6B2f3ertwh5I-6" value="" style="edgeStyle=orthogonalEdgeStyle;rounded=0;orthogonalLoop=1;jettySize=auto;html=1;fontSize=29;" edge="1" parent="1" source="mqdKLTsZ6B2f3ertwh5I-2" target="mqdKLTsZ6B2f3ertwh5I-4">
          <mxGeometry relative="1" as="geometry" />
        </mxCell>
        <mxCell id="mqdKLTsZ6B2f3ertwh5I-2" value="Weight Layer" style="rounded=0;whiteSpace=wrap;html=1;" vertex="1" parent="1">
          <mxGeometry x="439" y="385" width="120" height="30" as="geometry" />
        </mxCell>
        <mxCell id="mqdKLTsZ6B2f3ertwh5I-3" value="BN Layer" style="rounded=0;whiteSpace=wrap;html=1;" vertex="1" parent="1">
          <mxGeometry x="439" y="478" width="120" height="30" as="geometry" />
        </mxCell>
        <mxCell id="mqdKLTsZ6B2f3ertwh5I-5" value="" style="edgeStyle=orthogonalEdgeStyle;rounded=0;orthogonalLoop=1;jettySize=auto;html=1;fontSize=29;" edge="1" parent="1" source="mqdKLTsZ6B2f3ertwh5I-4" target="mqdKLTsZ6B2f3ertwh5I-3">
          <mxGeometry relative="1" as="geometry" />
        </mxCell>
        <mxCell id="mqdKLTsZ6B2f3ertwh5I-16" style="edgeStyle=orthogonalEdgeStyle;curved=1;orthogonalLoop=1;jettySize=auto;html=1;exitX=1;exitY=0.5;exitDx=0;exitDy=0;fontSize=12;startArrow=classic;startFill=1;endArrow=none;endFill=0;" edge="1" parent="1" source="mqdKLTsZ6B2f3ertwh5I-4">
          <mxGeometry relative="1" as="geometry">
            <mxPoint x="498.71428571428555" y="297.71428571428567" as="targetPoint" />
            <Array as="points">
              <mxPoint x="613" y="447" />
              <mxPoint x="613" y="298" />
              <mxPoint x="499" y="298" />
            </Array>
          </mxGeometry>
        </mxCell>
        <mxCell id="mqdKLTsZ6B2f3ertwh5I-4" value="&lt;font style=&quot;font-size: 29px&quot;&gt;+&lt;/font&gt;" style="ellipse;whiteSpace=wrap;html=1;aspect=fixed;" vertex="1" parent="1">
          <mxGeometry x="487" y="435" width="24" height="24" as="geometry" />
        </mxCell>
        <mxCell id="mqdKLTsZ6B2f3ertwh5I-13" style="edgeStyle=orthogonalEdgeStyle;orthogonalLoop=1;jettySize=auto;html=1;entryX=0.5;entryY=0;entryDx=0;entryDy=0;fontSize=12;curved=1;" edge="1" parent="1" source="mqdKLTsZ6B2f3ertwh5I-11" target="mqdKLTsZ6B2f3ertwh5I-1">
          <mxGeometry relative="1" as="geometry">
            <Array as="points">
              <mxPoint x="499" y="301" />
              <mxPoint x="499" y="301" />
            </Array>
          </mxGeometry>
        </mxCell>
        <mxCell id="mqdKLTsZ6B2f3ertwh5I-11" value="X" style="text;html=1;resizable=0;autosize=1;align=center;verticalAlign=middle;points=[];fillColor=none;strokeColor=none;rounded=0;dashed=1;dashPattern=1 4;fontSize=12;opacity=0;" vertex="1" parent="1">
          <mxGeometry x="490.5" y="264" width="17" height="18" as="geometry" />
        </mxCell>
      </root>
    </mxGraphModel>
  </diagram>
</mxfile>
